<?xml version="1.0" standalone="no"?>
<!DOCTYPE svg PUBLIC "-//W3C//DTD SVG 20010904//EN"
 "http://www.w3.org/TR/2001/REC-SVG-20010904/DTD/svg10.dtd">
<svg version="1.0" xmlns="http://www.w3.org/2000/svg"
 width="175.000000pt" height="200.000000pt" viewBox="0 0 175.000000 200.000000"
 preserveAspectRatio="xMidYMid meet">
<metadata>
Created by potrace 1.15, written by Peter Selinger 2001-2017
</metadata>
<g transform="translate(0.000000,200.000000) scale(0.100000,-0.100000)"
fill="#000000" stroke="none">
<path d="M778 1920 c-9 -39 -27 -87 -38 -106 -24 -39 -95 -89 -215 -154 -124
-68 -194 -117 -271 -194 -116 -115 -197 -262 -230 -415 -16 -79 -18 -274 -3
-357 23 -127 95 -271 190 -384 91 -108 242 -205 399 -256 79 -26 97 -28 255
-28 184 -1 239 8 359 61 248 109 422 313 487 572 29 115 24 339 -11 446 -47
148 -124 274 -237 388 -85 86 -177 147 -294 198 -148 63 -218 118 -329 257
-18 23 -36 42 -40 42 -3 0 -13 -32 -22 -70z m27 -147 c-9 -13 -37 -37 -61 -53
-39 -24 -43 -30 -28 -38 29 -16 8 -58 -64 -128 -150 -147 -436 -297 -458 -240
-11 29 16 73 84 138 74 71 157 130 242 173 157 78 259 167 276 240 12 54 19
51 22 -8 2 -42 -2 -66 -13 -84z m27 -944 c29 -11 107 -56 173 -99 66 -43 131
-81 143 -85 43 -13 90 5 196 75 136 89 157 100 203 100 51 0 78 -20 99 -75 50
-132 -53 -385 -156 -385 -24 0 -50 19 -131 94 -112 106 -155 131 -206 123 -19
-3 -97 -43 -173 -88 -197 -115 -245 -133 -350 -133 -68 0 -93 4 -126 21 -71
38 -114 107 -114 184 0 40 26 117 55 160 28 43 111 102 166 117 61 18 164 14
221 -9z m382 -395 c22 -8 59 -72 52 -89 -9 -24 -30 -17 -47 14 -31 53 -126 49
-199 -9 -31 -25 -44 -30 -53 -21 -16 16 0 38 57 78 42 29 56 33 111 33 35 0
70 -3 79 -6z m94 -211 c-5 -25 -63 -61 -127 -80 -71 -20 -239 -23 -303 -4 -52
15 -102 54 -95 74 7 21 39 20 81 -4 38 -22 52 -24 181 -24 131 0 143 2 190 26
61 32 78 34 73 12z"/>
</g>
</svg>
